<?xml version="1.0" standalone="no"?>
<!DOCTYPE svg PUBLIC "-//W3C//DTD SVG 20010904//EN"
 "http://www.w3.org/TR/2001/REC-SVG-20010904/DTD/svg10.dtd">
<svg version="1.0" xmlns="http://www.w3.org/2000/svg"
 width="460.000000pt" height="381.000000pt" viewBox="0 0 460.000000 381.000000"
 preserveAspectRatio="xMidYMid meet">
<metadata>
Created by potrace 1.16, written by Peter Selinger 2001-2019
</metadata>
<g transform="translate(0.000000,381.000000) scale(0.100000,-0.100000)"
fill="#000000" stroke="none">
<path d="M2165 3286 c-61 -28 -426 -239 -476 -274 -41 -30 -81 -83 -97 -131
-17 -48 -16 -619 0 -674 22 -74 86 -127 313 -258 116 -67 233 -132 260 -145
69 -33 161 -33 230 0 104 49 472 269 507 303 20 20 46 58 58 85 20 47 21 62
18 366 -4 420 14 387 -323 583 -115 67 -232 132 -260 145 -69 33 -161 33 -230
0z m418 -172 c130 -74 251 -147 268 -162 65 -54 69 -74 69 -407 0 -396 13
-366 -230 -507 -361 -210 -382 -219 -456 -199 -42 11 -466 252 -521 295 -18
15 -43 46 -56 69 -21 40 -22 55 -25 309 -4 323 1 361 61 422 41 42 448 284
526 313 71 26 109 12 364 -133z"/>
<path d="M2004 3094 c-282 -161 -290 -167 -314 -214 -20 -39 -21 -54 -18 -349
l3 -308 26 -34 c18 -23 95 -74 245 -160 293 -170 276 -162 348 -157 57 4 76
13 281 132 121 70 235 139 253 152 61 47 62 52 62 391 l0 308 -25 37 c-26 39
-57 58 -369 237 -224 128 -206 129 -492 -35z m334 -228 c32 -37 68 -122 78
-186 4 -22 9 -40 11 -40 3 0 23 16 46 35 38 33 130 75 163 75 47 0 36 -122
-23 -240 -21 -41 -39 -78 -41 -82 -2 -5 20 -8 50 -9 67 -1 165 -13 174 -21 23
-23 -74 -131 -157 -174 -45 -23 -70 -28 -149 -32 -83 -4 -105 -1 -175 23 -44
14 -126 50 -182 80 -56 30 -126 61 -154 69 -57 17 -149 21 -149 7 0 -38 116
-118 209 -144 l66 -18 -64 5 c-44 3 -82 14 -126 35 -98 49 -184 157 -144 182
23 14 129 9 202 -10 37 -9 67 -14 67 -9 0 4 -16 30 -36 58 -61 85 -91 203 -68
264 14 36 98 4 187 -70 38 -32 44 -30 51 14 19 104 79 222 115 222 10 0 32
-15 49 -34z"/>
<path d="M2255 2805 c-64 -110 -70 -180 -25 -305 40 -115 37 -142 -5 -51 -20
41 -52 96 -73 123 -35 47 -127 118 -153 118 -20 0 -6 -137 22 -195 63 -136
279 -265 443 -265 86 0 143 19 222 74 75 53 79 70 20 85 -74 18 -145 14 -204
-14 -68 -32 -71 -31 -30 3 52 42 67 63 98 127 31 67 49 185 27 185 -24 -1
-102 -41 -130 -68 -19 -18 -37 -56 -57 -123 -17 -53 -39 -108 -50 -121 -24
-28 -24 -33 0 82 23 113 25 199 6 264 -16 51 -60 126 -75 126 -5 0 -21 -20
-36 -45z"/>
<path d="M1047 1509 c-142 -33 -260 -164 -274 -303 l-6 -56 46 0 c49 0 49 0
61 71 8 49 58 121 104 151 57 38 108 51 174 45 113 -10 206 -95 230 -207 l12
-60 44 0 45 0 -5 58 c-6 62 -39 138 -82 190 -77 90 -230 139 -349 111z"/>
<path d="M1590 1165 l0 -355 45 0 45 0 0 355 0 355 -45 0 -45 0 0 -355z"/>
<path d="M2220 1165 l0 -355 45 0 45 0 0 355 0 355 -45 0 -45 0 0 -355z"/>
<path d="M3311 1508 c-56 -13 -131 -85 -149 -144 -13 -44 -16 -115 -6 -151 6
-20 13 -23 61 -23 49 0 54 2 48 18 -27 66 -24 114 10 166 33 50 59 56 240 56
l166 0 -3 43 -3 42 -160 2 c-88 0 -180 -3 -204 -9z"/>
<path d="M2910 1055 l0 -245 45 0 45 0 0 245 0 245 -45 0 -45 0 0 -245z"/>
<path d="M3204 1126 c15 -24 14 -27 -15 -74 -63 -102 -48 -234 36 -311 59 -54
96 -62 287 -59 l163 3 0 40 0 40 -170 5 c-108 3 -178 10 -192 17 -57 33 -85
143 -49 198 37 56 67 65 229 65 l147 0 0 50 0 50 -226 0 -226 0 16 -24z"/>
<path d="M770 895 l0 -215 45 0 45 0 0 170 0 170 265 0 265 0 0 -170 0 -170
45 0 45 0 0 215 0 215 -355 0 -355 0 0 -215z"/>
<path d="M1590 730 l0 -50 255 0 255 0 0 50 0 50 -255 0 -255 0 0 -50z"/>
<path d="M2220 730 l0 -50 255 0 255 0 0 50 0 50 -255 0 -255 0 0 -50z"/>
<path d="M2800 730 l0 -50 155 0 155 0 0 50 0 50 -155 0 -155 0 0 -50z"/>
</g>
</svg>
